PathFileType	4	(X/Y/Z)	0_coords_data.trc
DataRate	CameraRate	NumFrames	NumMarkers	Units	OrigDataRate	OrigDataStartFrame	OrigNumFrames
30.0	30.0	8	21	m	30.0	41	71
Frame#	Time	THUMB_TIP	THUMB_IP	THUMB_MCP	THUMB_CMC	INDEX_TIP	INDEX_DIP	INDEX_PIP	INDEX_MCP	MIDDLE_TIP	MIDDLE_DIP	MIDDLE_PIP	MIDDLE_MCP	RING_TIP	RING_DIP	RING_PIP	RING_MCP	PINKY_TIP	PINKY_DIP	PINKY_PIP	PINKY_MCP	WRIST
X1	Y1	Z1	X2	Y2	Z2	X3	Y3	Z3	X4	Y4	Z4	X5	Y5	Z5	X6	Y6	Z6	X7	Y7	Z7	X8	Y8	Z8	X9	Y9	Z9	X10	Y10	Z10	X11	Y11	Z11	X12	Y12	Z12	X13	Y13	Z13	X14	Y14	Z14	X15	Y15	Z15	X16	Y16	Z16	X17	Y17	Z17	X18	Y18	Z18	X19	Y19	Z19	X20	Y20	Z20	X21	Y21	Z21
40	1.3333333333333333	-0.005638689994812012	-0.1339980010986328	0.9748330078125	0.00023336799442768002	-0.10726799774169922	0.9827930297851563	-0.01314150047302246	-0.08497270202636718	1.0023200073242187	-0.01525349998474121	-0.04762749862670899	1.0175399780273438	0.021752899169921874	-0.09817649841308594	0.8809400024414062	0.0124306001663208	-0.08844429779052734	0.8999650268554688	0.00556935977935791	-0.07797640228271484	0.9214390258789062	-0.00987458038330078	-0.060059898376464846	0.9547839965820313	0.020063699722290038	-0.03755910110473633	0.8537880249023437	0.014779600143432617	-0.036908100128173825	0.8804810180664062	0.0075299601554870595	-0.036112098693847655	0.9101010131835937	-0.009106809616088868	-0.033903499603271485	0.9487659912109375	0.026744100570678712	0.015332799911499023	0.8649979858398438	0.01928179931640625	0.008755940437316895	0.88922998046875	0.011163900375366211	0.000746711015701294	0.9156920166015625	-0.002427459955215454	-0.01023169994354248	0.951635986328125	0.040006900787353514	0.058548099517822264	0.9186220092773437	0.02731830024719238	0.04585369873046875	0.9312109985351562	0.015371399879455567	0.032950199127197266	0.9424340209960937	-0.0011459200382232658	0.01149489974975586	0.960302001953125	-0.04064810180664063	-0.015516400337219238	1.037449951171875
41	1.3666666666666667	-0.004402530193328857	-0.133447998046875	0.9739710083007812	0.0016122499704360961	-0.10689700317382812	0.9825469970703125	-0.012371700286865234	-0.08522830200195312	1.0023599853515626	-0.01495479965209961	-0.04819219970703125	1.0181199951171875	0.026101699829101564	-0.09497039794921874	0.8811060180664062	0.016698999404907225	-0.08590540313720703	0.9006610107421875	0.008887630462646484	-0.07630909729003907	0.9225070190429687	-0.008278039932250977	-0.0595984992980957	0.9558200073242188	0.024330499649047852	-0.034499401092529296	0.8556179809570312	0.018691200256347656	-0.03475139999389648	0.8823319702148438	0.010753199577331543	-0.034832000732421875	0.9116480102539063	-0.007631710052490234	-0.0335974006652832	0.9498720092773437	0.032583999633789065	0.015819199562072755	0.8680819702148438	0.02422610092163086	0.009183289527893067	0.8921909790039062	0.014675399780273438	0.001211830019950866	0.91814599609375	-0.001809299945831298	-0.009846540451049804	0.9537650146484375	0.04504389953613281	0.05674580001831055	0.9226170043945312	0.03131660079956055	0.04468840026855469	0.934677001953125	0.018155899047851563	0.0323927001953125	0.9452260131835938	-0.000637721002101898	0.011708800315856933	0.9624730224609375	-0.040900299072265625	-0.01638209915161133	1.0381199951171876
42	1.4	0.0016032999753952022	-0.13243899536132814	0.9730460205078125	0.005745989799499512	-0.10561000061035156	0.9825989990234375	-0.0091764497756958	-0.0852520980834961	1.0028400268554687	-0.013111599922180176	-0.04834090042114258	1.0189199829101563	0.028253299713134766	-0.08950029754638672	0.8795139770507813	0.01924679946899414	-0.08179219818115234	0.9002020263671875	0.011222599983215332	-0.07356710052490234	0.9224180297851563	-0.006553329944610596	-0.05919449996948242	0.957166015625	0.024393199920654297	-0.029743499755859375	0.8564110107421875	0.01943320083618164	-0.031168800354003906	0.8833770141601562	0.011661700248718262	-0.03245289993286133	0.9130289916992187	-0.006715929985046386	-0.033055500030517576	0.95156298828125	0.03194289970397949	0.016600400924682616	0.869333984375	0.024258499145507813	0.009923270225524902	0.8935819702148438	0.014954299926757812	0.001979259967803955	0.9197459716796875	-0.001671779990196228	-0.009262439727783203	0.9556740112304688	0.04353329849243164	0.057050098419189454	0.92297900390625	0.030167999267578124	0.04506760025024414	0.9352579956054687	0.01727090072631836	0.0327411994934082	0.946281982421875	-0.000856589019298553	0.012103500366210938	0.9641640014648437	-0.040119701385498044	-0.017425600051879882	1.0390400390625
43	1.4333333333333333	0.014619799613952636	-0.13026800537109376	0.973885009765625	0.014233400344848633	-0.10340299987792968	0.984177001953125	-0.00363316011428833	-0.0851166000366211	1.0044400024414062	-0.010281100273132324	-0.04819469833374023	1.02052001953125	0.029524200439453124	-0.0824718017578125	0.8778319702148437	0.02100349998474121	-0.0765166015625	0.899594970703125	0.01279740047454834	-0.07001629638671875	0.9228839721679688	-0.004986579895019531	-0.0586530990600586	0.958906982421875	0.025099700927734375	-0.024878299713134766	0.8582780151367188	0.02014649963378906	-0.02759749984741211	0.8850999755859374	0.012090200424194337	-0.030278499603271485	0.9144810180664062	-0.006308859825134278	-0.032536701202392576	0.9533410034179688	0.030357200622558592	0.017509300231933592	0.8706519775390625	0.02338909912109375	0.010718600273132324	0.8951849975585937	0.014326800346374511	0.0025755898952484133	0.9215170288085938	-0.002218169927597046	-0.008996990203857422	0.9577739868164062	0.03959299850463867	0.057962100982666014	0.9227119750976562	0.026959299087524414	0.04565700149536133	0.9356480102539062	0.014857199668884278	0.03308240127563476	0.9473629760742187	-0.0019883300065994263	0.01231369972229004	0.9662520141601563	-0.039138999938964844	-0.01865719985961914	1.0405
44	1.4666666666666666	0.02902370071411133	-0.1261760025024414	0.9772880249023438	0.023118499755859376	-0.10015499877929687	0.9877260131835938	0.0011253800392150878	-0.08462460327148437	1.0077899780273438	-0.008228190422058105	-0.048346599578857424	1.0228099975585938	0.03464989852905274	-0.07603959655761719	0.8792860107421875	0.025441999435424804	-0.07201540374755859	0.9015889892578125	0.016022300720214842	-0.06728469848632812	0.9250180053710938	-0.003520669937133789	-0.05882479858398437	0.9613079833984375	0.03198769950866699	-0.022686899185180662	0.8626389770507813	0.025386499404907226	-0.02601889991760254	0.8889429931640624	0.015408800125122071	-0.029376399993896483	0.917875	-0.00576954984664917	-0.03281869888305664	0.9555789794921875	0.034388900756835934	0.01736090087890625	0.8743099975585937	0.026694299697875977	0.010469300270080566	0.8983989868164063	0.01631450080871582	0.0023534200191497805	0.9245700073242188	-0.0027841300964355467	-0.009235899925231933	0.9602069702148438	0.03858300018310547	0.05751129913330078	0.9238250122070313	0.026112499237060546	0.04526950073242188	0.9370830078125	0.014178600311279297	0.032756099700927736	0.9491090087890625	-0.0024704699516296382	0.012112099647521973	0.9684739990234374	-0.038549800872802735	-0.019773099899291994	1.04197998046875
45	1.5	0.04173220062255859	-0.11967400360107422	0.9801209716796875	0.03088990020751953	-0.09538069915771484	0.9909940185546875	0.006571569919586182	-0.08337850189208984	1.0109600219726562	-0.0058658099174499516	-0.04794509887695313	1.02522998046875	0.04241749954223633	-0.07240589904785157	0.8839929809570313	0.031089799880981445	-0.06946179962158203	0.9057340087890625	0.0195802001953125	-0.06620040130615235	0.9284039916992187	-0.003414999961853027	-0.059930198669433596	0.9635189819335938	0.040305301666259764	-0.024074199676513672	0.8681320190429688	0.031465599060058594	-0.02732040023803711	0.8936729736328125	0.01872209930419922	-0.03066010093688965	0.9215709838867188	-0.006015659809112549	-0.034027599334716795	0.957698974609375	0.04227640151977539	0.014652099609375	0.8793389892578125	0.03224850082397461	0.00825695037841797	0.9024290161132813	0.019453300476074218	0.0005169240236282341	0.9277979736328125	-0.0039403998851776124	-0.010474599838256837	0.9624030151367188	0.04156629943847656	0.05416389846801758	0.9262230224609375	0.028423299789428712	0.04283309936523438	0.9392080078125	0.01538700008392334	0.031079299926757814	0.9509140014648437	-0.003266510009765625	0.011209600448608399	0.9701790161132813	-0.037231201171875	-0.020716199874877928	1.0435400390625
46	1.5333333333333334	0.053172901153564454	-0.11026000213623047	0.9792689819335938	0.03859550094604492	-0.08822679901123047	0.9907459716796875	0.013511300086975098	-0.08014230346679688	1.012219970703125	-0.001398380041122436	-0.04695880126953125	1.026489990234375	0.04634000015258789	-0.06846029663085937	0.8878410034179688	0.0335614013671875	-0.06707009887695313	0.908780029296875	0.02024090003967285	-0.06539279937744141	0.9306640014648437	-0.004895400047302246	-0.06152510070800781	0.9650170288085937	0.043723400115966794	-0.026489200592041014	0.8723770141601562	0.03340039825439453	-0.029479299545288086	0.8968800048828125	0.018827800750732423	-0.032578800201416014	0.9239639892578125	-0.007825459957122803	-0.03562379837036133	0.9594669799804687	0.045461200714111326	0.011885899543762207	0.8823280029296875	0.034255401611328125	0.0058130002021789555	0.9048699951171875	0.019922300338745116	-0.001639529943466186	0.929551025390625	-0.005721049785614014	-0.012211700439453126	0.9639320068359375	0.04417959976196289	0.04901139831542969	0.9271859741210937	0.029805599212646486	0.03885309982299805	0.9397269897460937	0.01539929962158203	0.028144300460815428	0.9515889892578125	-0.004934800148010254	0.009703020095825195	0.9713109741210938	-0.03465420150756836	-0.021522699356079103	1.04468994140625
47	1.5666666666666667	0.05910390090942383	-0.10146499633789062	0.9752930297851562	0.04321939849853516	-0.08126370239257813	0.9884140014648437	0.019087200164794923	-0.07577580261230468	1.0122100219726562	0.0027632501125335693	-0.044780601501464845	1.02631005859375	0.041924701690673825	-0.06698249816894532	0.8873460083007813	0.02944149971008301	-0.06656620025634766	0.9085640258789063	0.01706279945373535	-0.06561609649658204	0.9311170043945313	-0.006562960147857666	-0.06271379852294921	0.9660120239257812	0.03939920043945312	-0.028496599197387694	0.8720040283203125	0.02925699996948242	-0.03140810012817383	0.8965349731445312	0.014919899940490722	-0.03441080093383789	0.924052978515625	-0.01032960033416748	-0.03716379928588867	0.9604140014648438	0.03893030166625976	0.010415200233459473	0.879843017578125	0.02853899955749512	0.004320859909057617	0.9028820190429687	0.01500730037689209	-0.0030210800170898428	0.928155029296875	-0.008103429794311523	-0.013679300308227539	0.9643690185546875	0.040067501068115234	0.044890998840332035	0.9228330078125	0.026071800231933593	0.035714900970458985	0.9361110229492188	0.011907899856567383	0.025901399612426757	0.9490339965820312	-0.006330820083618164	0.00862987995147705	0.971291015625	-0.03250550079345703	-0.021334299087524412	1.047030029296875
